<svg width="1044" height="987" viewBox="0 0 1044 987" fill="none" xmlns="http://www.w3.org/2000/svg">
<path fill-rule="evenodd" clip-rule="evenodd" d="M284.914 21.5118C378.816 -38.8391 500.328 44.8532 606.445 79.5601C695.841 108.799 781.671 142.629 850.687 206.555C922.505 273.077 976.461 354.474 1004.51 448.267C1036.23 554.339 1064.83 670.816 1019.74 771.899C973.65 875.226 876.3 961.001 765.538 983.99C662.06 1005.47 576.585 902.577 472.273 885.525C367.351 868.373 251.989 940.47 161.155 885.189C65.3803 826.901 -6.12791 710.625 1.04141 598.736C8.06001 489.198 147.437 441.917 195.868 343.439C246.231 241.031 188.927 83.2032 284.914 21.5118Z" fill="#FFCB47"/>
</svg>
